<?xml version="1.0" standalone="no"?>
<!DOCTYPE svg PUBLIC "-//W3C//DTD SVG 20010904//EN"
 "http://www.w3.org/TR/2001/REC-SVG-20010904/DTD/svg10.dtd">
<svg version="1.0" xmlns="http://www.w3.org/2000/svg"
 width="101.000000pt" height="101.000000pt" viewBox="0 0 101.000000 101.000000"
 preserveAspectRatio="xMidYMid meet">
<metadata>
Created by potrace 1.14, written by Peter Selinger 2001-2017
</metadata>
<g transform="translate(0.000000,101.000000) scale(0.100000,-0.100000)"
fill="#000000" stroke="none">
<path d="M120 669 c-41 -25 -55 -42 -75 -88 -28 -62 -13 -154 33 -204 52 -58
157 -74 237 -35 31 15 48 19 53 12 13 -20 81 -35 146 -32 35 2 63 5 60 7 -5 5
43 42 53 40 4 0 7 -5 5 -10 -1 -5 1 -8 5 -7 5 1 25 -6 47 -15 45 -20 124 -22
163 -4 85 38 121 109 108 214 -5 42 -13 59 -40 85 -19 17 -32 34 -30 37 5 9
-42 14 -117 13 -78 0 -108 -4 -103 -12 1 -3 -8 -13 -21 -23 -21 -16 -25 -16
-30 -3 -3 9 -12 16 -19 16 -7 0 -15 5 -17 11 -2 6 -36 14 -75 16 -61 5 -78 2
-114 -17 -39 -19 -44 -20 -54 -6 -7 9 -15 13 -18 9 -4 -3 -7 -2 -7 4 0 6 -32
11 -77 12 -64 1 -84 -2 -113 -20z"/>
</g>
</svg>
