<?xml version="1.0" encoding="UTF-8"?>
<!DOCTYPE svg PUBLIC "-//W3C//DTD SVG 1.1//EN" "http://www.w3.org/Graphics/SVG/1.1/DTD/svg11.dtd">
<!-- Creator: CorelDRAW X6 -->
<svg xmlns="http://www.w3.org/2000/svg" xml:space="preserve" width="100%" height="100%" version="1.1" style="shape-rendering:geometricPrecision; text-rendering:geometricPrecision; image-rendering:optimizeQuality; fill-rule:evenodd; clip-rule:evenodd"
viewBox="0 0 500 500"
 xmlns:xlink="http://www.w3.org/1999/xlink">
 <defs>
  <style type="text/css">
   <![CDATA[
    .fil1 {fill:#008EED}
    .fil0 {fill:#17A2FF}
   ]]>
  </style>
 </defs>
 <g id="Layer_x0020_1">
  <metadata id="CorelCorpID_0Corel-Layer"/>
  <path class="fil0" d="M20 250l0 0c0,-5 3,-11 8,-16l80 -80c4,-4 8,-8 16,-8 8,0 16,8 16,16l0 40c0,4 4,8 8,8 68,0 136,0 204,0 4,0 8,-4 8,-8l0 -40c0,-8 8,-16 16,-16 8,0 12,4 16,8l80 80c5,5 8,11 8,16l0 0 -460 0z"/>
  <path class="fil1" d="M472 266l-80 80c-4,4 -8,8 -16,8 -8,0 -16,-8 -16,-16l0 -40c0,-4 -4,-8 -8,-8 -68,0 -136,0 -204,0 -4,0 -8,4 -8,8l0 40c0,8 -8,16 -16,16 -8,0 -12,-4 -16,-8l-80 -80c-5,-5 -8,-11 -8,-16l460 0c0,5 -3,11 -8,16z"/>
 </g>
</svg>
