<?xml version="1.0" ?><svg height="1000" width="1000" xmlns="http://www.w3.org/2000/svg"><path d="M712 941c-14-2-29-8-35-15l-3-5H411l-266-1c-6-2-11-7-14-13-2-5-3-6-3-46v-41h-17l-1 4c-2 6-6 12-12 15-4 2-6 2-17 2l-16-1c-6-2-11-7-14-13l-2-5V75l2-5c2-5 8-9 13-11l303-1c328 0 307 0 315 6l6 7c2 5 2 7 2 18l-1 15c-2 6-6 11-11 14l-5 3v17h39c30 0 40 1 43 2 6 2 10 6 13 11 2 5 2 6 2 42 0 35 0 37-2 41-3 6-9 11-15 12l-3 1v23l14 3a214 214 0 01184 244c-13 81-68 148-145 175l-11 4v105c0 109-1 110-4 118-3 6-9 11-16 15-12 5-19 7-38 8l-22-1z" fill="#d3f5fd"/><path d="M706 940c-11-3-21-8-27-14l-6-6H410c-235 0-263 0-267-2-5-2-10-7-12-13-2-5-2-8-2-44l-1-41-9-1c-8 0-10 1-10 4 0 5-5 12-11 15-5 3-30 3-35 0-6-2-10-7-12-13-2-5-2-8-2-376l1-375c1-5 7-12 12-13 4-2 33-2 308-2l304 1 4 2c2 1 6 4 7 7l4 4v16c0 16-1 17-3 21l-8 7-5 3c-2 2-1 17 0 18l41 1c39 0 40 1 44 3s8 7 10 11l1 40v38l-2 4c-3 5-10 10-14 10-3 0-4 2-4 14l1 12 13 2a216 216 0 0139 418l-11 4v107c-1 123 0 114-10 124-6 6-16 11-28 14h-47zm8-317l3-7c4-5 7-6 22-7 36-2 66-17 89-45 10-11 14-13 24-9 4 2 13-21 17-40 2-12 2-39 0-51a139 139 0 00-110-110c-12-3-11-3-13 3-3 7-7 9-19 10a121 121 0 00-114 118c0 12-1 16-2 18-3 4-7 7-12 7-4 1-4 2-1 14 5 16 12 33 15 33l6-3h10l9 8 11 13c10 10 12 17 8 24l-2 4c0 3 20 13 33 17 8 3 24 7 25 6l1-3z" fill="#fceebb"/><path d="M706 940c-11-3-21-8-27-14l-6-6H410c-253 0-264 0-268-2-5-2-9-8-11-14-2-4-2-36-2-377l1-372 2-5c1-2 4-6 7-7l4-3h611l4 2c4 2 8 7 10 11l1 40v38l-2 4c-7 12-22 14-31 4-6-6-6-7-7-35v-24H170v700h249l249-1c1-2 2-184 1-185l-9-4-20-9-12-5h-81c-77 0-82 0-85-2-11-6-11-20 0-26 3-2 7-2 63-2l60-1-7-8c-9-9-20-23-27-34l-5-8h-65c-61 0-65 0-68-2-11-6-11-20 0-26 3-2 7-2 61-2h57v-2l-5-14-6-26c-2-13-2-17-2-36s0-23 2-36l3-16h-95c-91 0-96 0-99-2-11-6-11-20 0-26 3-2 8-2 104-2h100l6-12c8-16 15-27 25-40 8-10 9-12 9-15 0-7 7-14 15-14 3 0 5-2 13-8a216 216 0 01341 117c5 20 6 30 6 55 0 24-1 32-6 53-18 70-71 127-140 151l-11 3v107c-1 123 0 114-10 124-6 6-16 11-28 14h-47zm8-317l3-7c4-5 7-6 22-7 36-2 66-17 89-45 10-11 14-13 24-9 4 2 13-21 17-40 2-12 2-39 0-51a139 139 0 00-110-110c-12-3-11-3-13 3-3 7-7 9-19 10a121 121 0 00-114 118c0 12-1 16-2 18-3 4-7 7-12 7-4 1-4 2-1 14 5 16 12 33 15 33l6-3h10l9 8 11 13c10 10 12 17 8 24l-2 4c0 3 20 13 33 17 8 3 24 7 25 6l1-3zM63 838c-6-2-10-7-12-13-2-5-2-8-2-376l1-375c1-5 7-12 12-13 4-2 33-2 308-2l304 1 4 2c2 1 6 4 7 7l4 4v16c0 16-1 17-3 20-9 15-31 12-36-5l-2-4H90v699l3 1c5 1 11 6 14 11 5 10 1 22-10 27-4 3-30 3-35 0zm170-85c-5-3-8-7-8-13s3-10 8-13c3-2 9-2 155-2 151 0 151 1 154 3 5 3 7 7 7 12s-2 9-7 12c-3 2-3 3-154 3-146 0-152 0-155-2zm361 0c-5-3-8-7-8-13s3-10 8-13c3-2 6-2 13-2 12 0 17 2 20 8 4 7 1 16-6 20-5 3-22 3-27 0zm-361-80c-5-3-8-7-8-13s3-10 8-13c3-2 5-2 17-2 14 1 16 1 20 7 3 4 3 12 0 16-4 6-6 6-20 7-12 0-14 0-17-2zm89 0c-5-3-8-7-8-13s3-10 8-13c3-2 6-2 44-2 40 0 41 1 44 3 4 3 7 8 7 12s-3 9-7 12c-3 2-4 3-44 3-38 0-41 0-44-2zm-89-80c-5-3-8-7-8-13s3-10 8-13c3-2 7-2 63-2 58 0 59 1 62 3 5 3 6 7 6 12 1 5-1 9-6 12-3 2-4 3-62 3-56 0-60 0-63-2zm0-160c-11-6-11-20 0-26 3-2 6-2 18-2 16 0 20 1 24 7 5 7 2 17-6 21-3 2-6 2-18 2s-15 0-18-2zm0-80c-11-6-11-20 0-26 3-2 9-2 149-2l148 1c9 4 12 15 7 23-6 6 5 6-155 6-140 0-146 0-149-2zm0-80c-11-6-11-20 0-26 3-2 7-2 64-2s61 0 64 2c11 6 11 20 0 26-3 2-7 2-64 2s-61 0-64-2zm186 0c-5-3-8-7-8-13 0-9 7-15 18-15 7 1 10 2 14 8s2 14-5 19c-4 3-14 4-19 1zm82 0c-11-6-11-20 0-26 3-2 6-2 25-2 20 0 22 0 25 2 3 1 5 4 6 6 4 7 1 16-6 20-3 2-5 2-25 2-19 0-22 0-25-2z" fill="#aad6e0"/><path d="M704 938c-11-3-21-8-26-13l-4-5-266-1H143l-4-4-7-9-2-6V156l2-5c1-2 4-6 7-7l4-4 303 1 307 1c6 2 10 5 13 10 2 3 2 5 2 42v38l-2 4c-2 4-4 5-8 7-9 5-16 4-22-2s-6-8-7-36v-25H170v700l249 1 249-1c1-2 2-184 1-185l-9-4-20-9-12-5h-81c-77 0-82 0-85-2-11-6-11-20 0-26 3-2 7-2 63-2l60-1-7-8c-9-9-20-23-27-34l-5-8h-65c-61 0-65 0-68-2-11-6-11-20 0-26 3-2 7-2 61-2h57v-2l-5-14-6-26c-2-13-2-17-2-36s0-23 2-36l3-16h-95c-91 0-96 0-99-2-11-6-11-20 0-26 3-2 8-2 104-2h100l6-12c8-16 15-27 25-40 8-10 9-12 9-15 0-7 7-14 15-14 3 0 5-2 13-8a216 216 0 11202 374l-12 5-1 104c0 106 0 112-4 119-4 9-15 16-30 20-10 3-42 3-52 0zm45-39l2-1v-72l-1-76v-3h-40v3a2467 2467 0 000 149c3 1 8 2 22 2l17-2zm7-231c5-6 8-7 22-11a181 181 0 0098-68c8-11 20-34 24-46a182 182 0 00-24-158c-8-12-29-33-41-41-11-8-34-20-46-24a182 182 0 00-158 24c-12 8-33 29-41 41-8 11-20 34-24 47a182 182 0 0024 157c8 12 29 33 41 41 16 11 38 22 53 26 13 3 21 8 23 15 1 2 2 2 23 2h21l5-5zm-33-30c-6-3-8-8-8-13 1-6 3-10 9-13 4-2 6-2 13-2a117 117 0 0094-47c5-8 14-10 21-6 8 4 9 14 3 22-4 7-19 22-27 29-22 17-47 27-74 30-17 3-27 2-31 0zm-85-33c-4-2-21-20-26-27-3-5-4-11-2-16 2-3 9-7 13-7 6 0 9 2 18 12l10 11c3 1 7 10 7 14 0 3-4 10-7 12-4 3-9 3-13 1zm-50-99c-5-4-6-9-6-24 2-33 12-61 33-87 25-33 63-54 104-58 14-1 18-1 23 5 4 4 5 7 3 12-2 8-8 12-18 12a122 122 0 00-115 121c0 12-1 16-7 20-5 3-12 3-17-1zM66 839c-5-1-11-6-14-12l-2-5V75l2-4 6-7 4-3 304-1 307 1c5 1 10 5 13 9 1 3 2 6 2 16 1 13 0 19-4 24-3 5-11 9-16 9-8 0-16-7-18-15l-2-4H90v699l3 1c5 1 11 6 14 11s2 11-1 18c-4 8-11 11-25 11l-15-1zm167-86c-5-3-8-7-8-13s3-10 8-13c3-2 9-2 155-2 151 0 151 1 154 3 5 3 7 7 7 12s-2 9-7 12c-3 2-3 3-154 3-146 0-152 0-155-2zm361 0c-5-3-8-7-8-13s3-10 8-13c3-2 6-2 13-2 12 0 17 2 20 8 4 7 1 16-6 20-5 3-22 3-27 0zm-361-80c-5-3-8-7-8-13s3-10 8-13c3-2 5-2 17-2 14 1 16 1 20 7 3 4 3 12 0 16-4 6-6 6-20 7-12 0-14 0-17-2zm89 0c-5-3-8-7-8-13s3-10 8-13c3-2 6-2 44-2 40 0 41 1 44 3 4 3 7 8 7 12s-3 9-7 12c-3 2-4 3-44 3-38 0-41 0-44-2zm-89-80c-5-3-8-7-8-13s3-10 8-13c3-2 7-2 63-2 58 0 59 1 62 3 5 3 6 7 6 12 1 5-1 9-6 12-3 2-4 3-62 3-56 0-60 0-63-2zm0-160c-11-6-11-20 0-26 3-2 6-2 18-2 16 0 20 1 24 7 5 7 2 17-6 21-3 2-6 2-18 2s-15 0-18-2zm0-80c-11-6-11-20 0-26 3-2 9-2 149-2l148 1c9 4 12 15 7 23-6 6 5 6-155 6-140 0-146 0-149-2zm0-80c-11-6-11-20 0-26 3-2 7-2 64-2s61 0 64 2c11 6 11 20 0 26-3 2-7 2-64 2s-61 0-64-2zm186 0c-5-3-8-7-8-13 0-9 7-15 18-15 7 1 10 2 14 8s2 14-5 19c-4 3-14 4-19 1zm82 0c-11-6-11-20 0-26 3-2 6-2 25-2 20 0 22 0 25 2 3 1 5 4 6 6 4 7 1 16-6 20-3 2-5 2-25 2-19 0-22 0-25-2z" fill="#9da098"/><path d="M705 937c-12-3-18-6-25-13l-7-6H144l-4-3-6-8-2-4V154l2-4 6-7 5-2h304c301 0 304 1 307 2l7 6 4 4v77l-5 8c-9 9-24 6-29-5-2-4-2-7-2-29 0-20 0-24-2-25-1-2-28-2-280-2s-279 0-280 2c-2 1-2 34-2 351 0 316 0 349 2 350a13993 13993 0 00500 1c1-1 2-13 2-94l-1-95-10-3-20-9-13-6h-81c-80 0-81 0-85-2-3-2-6-7-6-11s3-9 6-11c4-2 5-2 65-2 54 0 61 0 62-2l-9-11c-10-10-19-21-26-33l-7-8-66-1c-63 0-64 0-68-2-3-2-6-7-6-11s3-9 6-11c4-2 5-2 61-2l59-1c1-1 1-2-2-10-7-21-10-38-11-62 0-18 1-34 4-49 1-7 2-10 1-11l-97-1c-94 0-95 0-99-2-3-2-6-7-6-11s3-9 6-11c4-2 5-2 104-2l102-1 7-14c6-13 18-30 27-41 5-6 6-8 6-11 0-7 6-14 13-14 4 0 5-1 18-11a213 213 0 01299 43 218 218 0 0141 161 219 219 0 01-61 119c-24 24-48 39-81 51l-13 5-1 108c0 75-1 108-2 111-2 5-4 9-8 13-6 5-13 8-24 11-12 3-39 3-50 0zm43-36l4-1v-8a8973 8973 0 00-2-213c1-3 2-5 7-10 5-6 6-6 14-9a178 178 0 00134-217 177 177 0 10-215 216c8 2 12 6 17 13l3 5-1 34a28101 28101 0 01-1 181l1 8 3 1 18 1 18-1zm-21-263c-4-1-9-5-10-9v-8c3-8 7-9 23-10 20-1 34-5 50-13 15-7 31-21 41-33l7-8c6-3 15 0 18 6 3 4 2 7 0 13a154 154 0 01-129 63zm-90-34c-3-2-23-24-25-28-7-14 8-26 20-17l4 4 9 10c11 12 13 16 11 22s-7 10-12 10l-7-1zm-47-98c-6-5-7-11-6-29 3-38 17-68 44-95a142 142 0 01106-44c7 2 12 9 10 16s-8 11-18 11a123 123 0 00-115 120c0 12-1 16-5 20-4 3-12 4-16 1zM62 836c-5-2-7-6-10-12l-1-376V76l2-5 7-7 3-2h305c303 0 305 0 308 2 3 1 6 3 7 5 3 4 4 4 4 19 0 16-1 21-7 25-11 9-26 3-29-11l-2-4a26650 26650 0 00-560 1c-2 1-2 34-2 350l1 351 4 1c8 2 15 10 15 19 0 6-2 10-7 14l-4 3-15 1c-13 0-15 0-19-2zm171-85c-4-2-7-7-7-11s3-9 6-11c4-2 5-2 155-2 148 0 151 0 154 2 8 5 8 17 0 22-3 2-6 2-154 2-149 0-152 0-154-2zm361 0c-4-2-7-7-7-11s3-9 6-11 5-2 15-2c11 0 11 0 14 3 5 4 6 9 5 13l-5 7c-3 3-3 3-14 3-10 0-12 0-15-2zm-361-80c-4-2-7-7-7-11s3-9 6-11 5-2 17-2c14 0 17 1 20 7 4 6 2 13-4 17-3 2-5 2-16 2-12 0-14 0-16-2zm89 0c-4-2-7-7-7-11s3-9 7-11c3-2 4-2 44-2h42l4 4c3 3 3 5 3 9s0 6-3 9l-4 3-42 1c-40 0-42 0-44-2zm-89-80c-4-2-7-7-7-11s3-9 6-11c4-2 5-2 63-2 56 0 59 0 62 2 1 1 4 3 4 5 4 6 2 13-4 17-3 2-6 2-63 2s-59 0-62-2zm0-160c-4-2-7-7-7-11s3-9 6-11 5-2 19-2 16 0 19 2 6 7 6 11-3 9-6 11-5 2-19 2-16 0-18-2zm0-80c-4-2-7-7-7-11s3-9 6-11c4-2 5-2 150-2 144 0 147 0 150 2 1 1 4 3 4 5 4 6 2 13-4 17-3 2-6 2-150 2s-147 0-149-2zm0-80c-4-2-7-7-7-11s3-9 6-11c4-2 5-2 65-2s61 0 65 2c3 2 6 7 6 11s-3 9-6 11c-4 2-5 2-65 2s-62 0-65-2zm186 0c-4-2-7-7-7-11s3-9 7-11c3-2 4-2 10-2 7 1 7 1 11 4 3 3 3 5 3 9s0 6-3 9c-4 3-4 3-11 4-6 0-8 0-10-2zm82 0c-4-2-7-7-7-11s3-9 6-11 5-2 26-2h23l3 3c5 4 7 9 5 13l-5 7-3 3h-23c-21 0-23 0-26-2z" fill="#7d8587"/><path d="M713 938c-14-2-28-8-34-16l-4-4H410l-265-1-4-2c-3-2-5-5-7-9l-2-5-1-371 1-375c1-5 7-12 12-13l305-1 302 1 4 2c5 2 10 7 11 12a377 377 0 01-4 81c-3 3-9 6-13 6-6 0-11-3-14-8l-3-4-1-26-1-27c-2-2-560-2-562 0s-2 701 0 703l251 1c246 0 250 0 251-2l1-95c0-87 0-93-2-93a516 516 0 00-27-12l-12-6H463l-3-3c-6-6-6-14 0-20l3-2 63-1c56 0 62 0 62-2l-9-11c-11-11-27-33-31-41l-67-1h-67l-3-3c-6-6-6-14 0-20l3-2 59-1 60-1-3-11c-8-25-10-41-10-69 0-18 0-24 2-34l2-15 1-3-98-1h-97l-3-3c-6-6-6-14 0-20l3-2 102-1 102-1 7-13c8-15 12-23 22-35 11-15 12-16 11-17-1-2 2-9 5-11l8-4c5 0 7-2 11-5a208 208 0 01128-48 217 217 0 01207 139 215 215 0 01-132 277c-11 4-12 5-13 7v101c1 99 1 111-2 119-4 9-14 16-29 20-6 2-11 2-23 2h-21zm35-36l4-3 1-77V677l2-5c4-6 8-9 21-12a179 179 0 0019-340 178 178 0 10-105 340c9 3 14 7 17 16l1 62v161l3 3c5 1 33 2 37 0zm-24-266c-7-4-9-13-3-19 3-4 6-5 21-5a119 119 0 0090-47c4-6 7-8 13-8 3 0 5 1 8 3 7 7 5 13-6 26-28 32-64 49-108 51-9 1-11 1-15-1zm-87-34c-4-2-19-20-23-25-3-4-3-5-3-9 1-6 6-11 12-11 4 0 12 4 12 6l9 10c12 13 14 18 11 24-4 7-12 9-18 5zm-46-97c-5-2-6-6-6-19a147 147 0 0182-132c19-9 37-14 56-15h13l3 2 4 7c1 3 1 4-1 8-3 6-6 8-18 8a123 123 0 00-114 119c0 15-1 18-5 22-4 2-10 3-14 0zM66 837c-5-1-9-5-12-11l-2-5V75l3-4c1-3 4-6 7-7l4-2h302l306 1c6 2 10 7 12 13v27c-2 8-10 14-17 14-9 0-15-5-18-14l-1-5-280-1-282 1-1 352v350l2 1 5 1c4 1 10 7 12 11 3 8-1 18-10 23-3 2-6 2-16 2l-14-1zm169-85c-3-1-7-5-8-9s0-9 4-13l3-3h152c167 0 155-1 159 6 4 6 2 14-4 18-3 2-6 2-154 2l-152-1zm361 0c-3-1-7-5-8-9s0-9 4-13c3-2 4-3 14-3l13 1c10 4 11 18 1 24-3 1-21 2-24 0zm-361-80c-3-1-7-5-8-9s0-9 4-13c3-2 3-3 17-3 13 0 14 0 17 2 5 4 7 9 5 15l-5 7c-3 2-4 2-16 2l-14-1zm89 0c-3-1-7-5-8-9s0-9 4-13l3-3h41c45 0 45 0 49 6s2 14-4 18c-3 2-6 2-43 2l-42-1zm-89-80c-3-1-7-5-8-9s0-9 4-13l3-3h120l3 2 5 7v8l-5 7-3 2h-59l-60-1zm0-160c-4-1-7-5-8-9s0-9 4-13l3-2h34l3 2c6 6 6 14 0 20l-3 3h-16l-17-1zm0-80c-3-1-7-5-8-9s0-9 4-13l3-2 147-1c141 0 147 0 150 2 4 2 7 7 7 11s-3 9-7 11c-3 2-10 2-149 2l-147-1zm0-80c-4-1-7-5-8-9s0-9 4-13l3-2h126l3 2c6 6 6 14 0 20l-3 3h-62l-63-1zm186 0c-3-1-7-5-8-9s0-9 4-13l9-3c8 0 12 1 15 6 4 6 2 14-4 18-4 2-13 3-16 1zm82 0c-3-1-7-5-8-9s0-9 4-13l3-3h22c24 0 26 0 31 5 3 4 3 11 0 15-4 6-6 6-29 6l-23-1z" fill="#81807d"/><path d="M705 936c-12-3-21-8-26-14l-4-5H147l-4-2c-5-3-8-8-10-13l-1-375c0-360 0-371 2-375l6-7 3-2 303-1 306 1c5 1 11 6 13 11l1 39c0 40 0 40-6 45l-6 4-4 1c-2 0-8-2-12-6-5-5-6-8-6-34 0-20 0-24-2-25-1-2-28-2-281-2s-280 0-281 2c-2 1-2 34-2 352 0 317 0 350 2 351a14097 14097 0 00502 1c1-1 2-13 2-95 0-90 0-95-2-96l-11-4-20-9-10-5H465l-3-2c-5-4-7-9-5-14l5-6c3-2 5-2 64-2a1681 1681 0 0064-2l-9-11a252 252 0 01-34-43l-66-1h-65l-3-2c-5-4-7-9-5-14l5-6c3-2 5-2 61-2l59-1c2-1 2-1-4-20-10-31-11-67-5-102 2-9 2-11 1-12l-97-1h-96l-3-2c-5-4-7-9-5-14l5-6c2-1 8-2 104-2h102l7-15c9-17 18-31 27-42 4-5 6-8 6-10 0-8 6-14 13-14 4 0 4 0 17-10a217 217 0 01160-41 214 214 0 01174 263c-17 70-70 127-138 150l-12 4-1 108c-1 121 0 112-8 122-4 5-14 10-25 13-12 3-39 3-50 0zm44-34c3-1 4-3 4-5V677l3-5c5-7 8-8 21-12a177 177 0 00132-199 179 179 0 10-219 199c7 2 12 7 15 12l2 4v110 111c0 4 3 5 10 6 9 1 29 0 32-1zm-26-267c-5-3-6-8-5-13 2-7 6-9 19-10a124 124 0 0091-43c8-9 10-11 14-12 4 0 8 1 11 4 4 4 4 11 1 15a147 147 0 01-118 60c-10 1-11 1-13-1zm-85-32c-5-3-24-25-26-30-3-7 4-16 11-16 5 0 8 2 14 9l11 12c7 8 9 12 6 18-3 7-10 10-16 7zm-46-97l-5-5c-2-3-2-4-2-15a149 149 0 01145-147c6 1 7 1 10 4 3 4 4 9 2 14-3 5-6 6-18 7a124 124 0 00-114 123c-1 9-1 12-3 14-3 5-10 7-15 5zM63 835c-5-3-9-8-10-13l-1-376 1-371 2-4 6-7 5-2h301l305 1c5 1 11 6 13 11 1 4 2 27 0 31-2 6-9 11-16 11-8 0-15-5-17-14l-2-5a27161 27161 0 00-562 1c-2 1-2 34-2 351l1 352 5 2c9 2 14 9 14 17 0 5-2 8-6 12-4 5-6 5-20 5-12 0-14 0-17-2zm170-85l-5-6c-2-5 0-10 5-14l3-2h302l4 4c3 3 4 4 4 8s-1 5-4 8l-4 4H387c-149 0-151 0-154-2zm361 0l-5-6c-2-5 0-10 5-14 3-2 5-2 13-2 11 0 15 1 17 6 4 6 2 14-4 16-2 2-6 2-13 2-8 0-10 0-13-2zm-361-80l-5-6c-2-5 0-10 5-14 3-2 4-2 16-2h13l4 3c3 4 4 4 4 9s-1 5-4 9l-4 3h-13c-11 0-13 0-16-2zm89 0l-5-6c-2-5 0-10 5-14l3-2h81l4 4c3 3 4 4 4 8s-1 5-4 8l-4 4h-40c-39 0-41 0-44-2zm-89-80l-5-6c-2-5 0-10 5-14l3-2h118l4 3c3 4 4 4 4 9s-1 5-4 9l-4 3h-59c-57 0-59 0-62-2zm0-160l-5-6c-2-5 0-10 5-14 3-2 4-2 18-2s15 0 18 2c5 4 7 9 5 14-3 7-6 8-23 8-13 0-15 0-18-2zm0-80l-5-6c-2-5 0-10 5-14l3-2h147l147 1 3 3 4 5c0 4-1 8-4 11l-3 4H383c-146 0-147 0-150-2zm0-80l-5-6c-2-5 0-10 5-14l3-2h61c59 0 61 0 64 2l5 6c2 5 0 10-5 14l-3 2h-61c-59 0-61 0-64-2zm186 0l-5-6v-7c2-6 7-9 14-9 6 0 6 0 10 4 3 3 4 4 4 8s-1 5-4 8c-4 4-4 4-10 4l-9-2zm82 0l-5-6c-2-5 0-10 5-14 3-2 4-2 25-2 23 0 26 0 28 6 4 6 2 14-4 16-2 2-7 2-24 2-20 0-22 0-25-2z" fill="#7a7a7a"/></svg>