<svg xmlns="http://www.w3.org/2000/svg" viewBox="0 0 58.76 65.52"><defs><style>.cls-1{fill:#efefef;}.cls-2{fill:#ffd9c7;}.cls-3{fill:#4d4d4d;}.cls-4{fill:#d89078;}.cls-5{fill:#f79;}</style></defs><title>Gift</title><g id="Layer_2" data-name="Layer 2"><g id="Layer_1-2" data-name="Layer 1"><path class="cls-1" d="M7.71,56.52C2.33,51-1.68,43.25.7,38.16S12,30.47,18.91,22.93,31.06,2.91,38.31.46,54.89,5.62,57.73,14.35s-.87,18.54-3,27.43S50.44,56.71,46,61.09,33.46,66.26,26,65,13.11,62.08,7.71,56.52Z"/><path class="cls-2" d="M9.45,52.64a6,6,0,0,1-6-6V26.05a1.4,1.4,0,0,1,1.4-1.4H50.68a1.4,1.4,0,0,1,1.39,1.4V46.66a6,6,0,0,1-6,6Z"/><path class="cls-3" d="M50.68,24.9a1.15,1.15,0,0,1,1.15,1.15V46.66a5.74,5.74,0,0,1-5.73,5.73H9.45a5.74,5.74,0,0,1-5.73-5.73V26.05A1.15,1.15,0,0,1,4.87,24.9H50.68m0-.5H4.87a1.65,1.65,0,0,0-1.65,1.65V46.66a6.24,6.24,0,0,0,6.23,6.23H46.1a6.24,6.24,0,0,0,6.23-6.23V26.05a1.65,1.65,0,0,0-1.65-1.65Z"/><path class="cls-4" d="M2.58,27.44a1.4,1.4,0,0,1-1.4-1.39V19.17a6,6,0,0,1,6-6H48.39a6,6,0,0,1,6,6v6.88A1.4,1.4,0,0,1,53,27.44Z"/><path class="cls-3" d="M48.39,13.45a5.73,5.73,0,0,1,5.73,5.72v6.88A1.15,1.15,0,0,1,53,27.19H2.58a1.15,1.15,0,0,1-1.15-1.14V19.17a5.73,5.73,0,0,1,5.73-5.72H48.39m0-.5H7.16A6.24,6.24,0,0,0,.93,19.17v6.88a1.65,1.65,0,0,0,1.65,1.64H53a1.65,1.65,0,0,0,1.65-1.64V19.17A6.24,6.24,0,0,0,48.39,13Z"/><path class="cls-5" d="M39.85,4.88a3.41,3.41,0,0,0-4.22-2.36A12.68,12.68,0,0,0,27.77,9.4a12.63,12.63,0,0,0-7.85-6.88,3.46,3.46,0,0,0-1.86,0A3.42,3.42,0,0,0,15.7,6.74a12.65,12.65,0,0,0,9.58,8.73l-5.19,5.18a1.15,1.15,0,0,0,1.62,1.62l4.92-4.91v35h2.29v-35l4.92,4.92a1.14,1.14,0,0,0,1.61-1.62l-5.18-5.19a12.65,12.65,0,0,0,9.58-8.73A3.46,3.46,0,0,0,39.85,4.88Zm-22,1.2A1.07,1.07,0,0,1,18.19,5,1.16,1.16,0,0,1,19,4.67a.92.92,0,0,1,.29,0,10.36,10.36,0,0,1,7.29,8.66A10.38,10.38,0,0,1,17.89,6.08Zm19.76,0A10.38,10.38,0,0,1,29,13.38a10.39,10.39,0,0,1,7.29-8.67,1,1,0,0,1,.3,0h0a1.16,1.16,0,0,1,.78.34A1.06,1.06,0,0,1,37.65,6.08Z"/><path class="cls-3" d="M28.92,52.64H26.63a.25.25,0,0,1-.25-.25V18l-4.49,4.49a1.4,1.4,0,0,1-2.37-1,1.36,1.36,0,0,1,.39-1l4.87-4.87a12.89,12.89,0,0,1-9.32-8.8A3.67,3.67,0,0,1,18,2.28a3.54,3.54,0,0,1,2,0,12.9,12.9,0,0,1,7.78,6.54,12.94,12.94,0,0,1,7.79-6.54,3.67,3.67,0,0,1,4.53,2.53,3.58,3.58,0,0,1,0,2,12.92,12.92,0,0,1-9.32,8.81l4.86,4.86a1.4,1.4,0,0,1,0,2,1.43,1.43,0,0,1-2,0L29.17,18V52.39A.25.25,0,0,1,28.92,52.64Zm-2-.5h1.79V17.36a.25.25,0,0,1,.15-.23.26.26,0,0,1,.28.05L34,22.1a.93.93,0,0,0,1.26,0,.9.9,0,0,0,0-1.27l-5.19-5.18A.26.26,0,0,1,30,15.4a.24.24,0,0,1,.19-.17,12.41,12.41,0,0,0,9.39-8.56,3.14,3.14,0,0,0,0-1.72h0A3.13,3.13,0,0,0,38.11,3a3.16,3.16,0,0,0-2.41-.28A12.44,12.44,0,0,0,28,9.5a.25.25,0,0,1-.45,0,12.44,12.44,0,0,0-7.7-6.74,3.17,3.17,0,0,0-3.91,3.91,12.41,12.41,0,0,0,9.39,8.56.24.24,0,0,1,.19.17.26.26,0,0,1-.07.25l-5.18,5.18a.93.93,0,0,0-.25.64.86.86,0,0,0,.27.62.89.89,0,0,0,1.25,0l4.91-4.91a.26.26,0,0,1,.28-.05.25.25,0,0,1,.15.23ZM29,13.63a.23.23,0,0,1-.17-.08.24.24,0,0,1-.08-.21,10.65,10.65,0,0,1,7.47-8.87,1.26,1.26,0,0,1,.33,0h0a1.36,1.36,0,0,1,1,.41,1.29,1.29,0,0,1,.36,1.32h0A10.61,10.61,0,0,1,29,13.62ZM36.6,4.92a2,2,0,0,0-.24,0,10.12,10.12,0,0,0-7.07,8.13A10.11,10.11,0,0,0,37.41,6a.79.79,0,0,0-.23-.82A.83.83,0,0,0,36.6,4.92Zm-10,8.7h0a10.62,10.62,0,0,1-8.87-7.47h0A1.32,1.32,0,0,1,18,4.83,1.38,1.38,0,0,1,19,4.42a1.14,1.14,0,0,1,.37,0,10.63,10.63,0,0,1,7.47,8.88.26.26,0,0,1-.07.21A.24.24,0,0,1,26.55,13.62ZM18.13,6a10.14,10.14,0,0,0,8.13,7.07,10.13,10.13,0,0,0-7.07-8.14l-.21,0a.92.92,0,0,0-.61.26A.84.84,0,0,0,18.13,6Z"/></g></g></svg>