<svg id="Layer_1" data-name="Layer 1" xmlns="http://www.w3.org/2000/svg" viewBox="0 0 48 48"><defs><style>.cls-1{fill:#edebf2;}.cls-2{fill:#c6c3d8;}.cls-3{fill:#72aaed;}.cls-4{fill:#fff;}.cls-5{fill:#3b506d;}.cls-6{fill:#84b749;}.cls-7{fill:#b5e08c;}.cls-8{fill:#a9a5c4;}</style></defs><title>finance, receipt, dollar, calculator, payment, money</title><path class="cls-1" d="M12.25,41.63H43.58a3.92,3.92,0,0,1,3.92,3.92v2a0,0,0,0,1,0,0H8.33a0,0,0,0,1,0,0v-2A3.92,3.92,0,0,1,12.25,41.63Z" transform="translate(55.83 89.13) rotate(180)"/><polygon class="cls-1" points="39.67 2.55 39.67 43.58 8.33 43.58 8.33 2.55 10.29 0.5 12.25 2.55 14.21 0.5 16.17 2.55 18.13 0.5 20.08 2.55 22.04 0.5 24 2.55 25.96 0.5 27.92 2.55 29.88 0.5 31.83 2.55 33.79 0.5 35.75 2.55 37.71 0.5 39.67 2.55"/><path class="cls-2" d="M43.58,41.63h0a3.92,3.92,0,0,1,3.92,3.92v2a0,0,0,0,1,0,0H39.67a0,0,0,0,1,0,0v-2A3.92,3.92,0,0,1,43.58,41.63Z" transform="translate(87.17 89.13) rotate(180)"/><rect class="cls-3" x="0.5" y="21.06" width="13.71" height="19.58" rx="0.98"/><rect class="cls-4" x="2.46" y="23.02" width="9.79" height="3.92"/><rect class="cls-5" x="2.46" y="28.9" width="1.96" height="1.96"/><rect class="cls-5" x="6.38" y="28.9" width="1.96" height="1.96"/><rect class="cls-5" x="10.29" y="28.9" width="1.96" height="1.96"/><rect class="cls-5" x="2.46" y="32.81" width="1.96" height="1.96"/><rect class="cls-5" x="6.38" y="32.81" width="1.96" height="1.96"/><rect class="cls-5" x="10.29" y="32.81" width="1.96" height="1.96"/><rect class="cls-5" x="2.46" y="36.73" width="1.96" height="1.96"/><rect class="cls-5" x="6.38" y="36.73" width="1.96" height="1.96"/><rect class="cls-5" x="10.29" y="36.73" width="1.96" height="1.96"/><rect class="cls-6" x="25.96" y="5.4" width="21.54" height="13.71"/><path class="cls-7" d="M43.58,17.15H29.88a2,2,0,0,0-2-2V9.31a2,2,0,0,0,2-2h13.7a2,2,0,0,0,2,2v5.88A2,2,0,0,0,43.58,17.15Z"/><ellipse class="cls-6" cx="36.73" cy="12.25" rx="1.96" ry="2.94"/><path class="cls-8" d="M17.64,10.29h3.42v-2h-2V6.38h-2v2a2.46,2.46,0,0,0-1.85,3.15,2.49,2.49,0,0,0,2.42,1.7h.89a.48.48,0,0,1,.49.49.48.48,0,0,1-.49.49H15.19v2h2v1.95h2v-2A2.46,2.46,0,0,0,21,13a2.49,2.49,0,0,0-2.42-1.7h-.89a.48.48,0,0,1-.49-.49A.48.48,0,0,1,17.64,10.29Z"/><rect class="cls-2" x="17.15" y="22.04" width="19.58" height="1.96" rx="0.98"/><rect class="cls-2" x="17.15" y="26.94" width="6.85" height="1.96" rx="0.98"/><rect class="cls-2" x="25.96" y="26.94" width="10.77" height="1.96" rx="0.98"/><rect class="cls-2" x="30.85" y="31.83" width="5.88" height="1.96" rx="0.98"/><rect class="cls-2" x="17.15" y="31.83" width="11.75" height="1.96" rx="0.98"/><rect class="cls-2" x="17.15" y="36.73" width="19.58" height="1.96" rx="0.98"/><rect class="cls-6" x="40.65" y="11.27" width="2.94" height="1.96"/><rect class="cls-6" x="29.88" y="11.27" width="2.94" height="1.96"/></svg>